<svg version="1.0" xmlns="http://www.w3.org/2000/svg" width="1280.000000pt" height="1280.000000pt" viewBox="0 0 1280.000000 1280.000000" preserveAspectRatio="xMidYMid meet">
    <g transform="translate(0.000000,1280.000000) scale(0.100000,-0.100000)" fill="#000000" stroke="none">
        <path d="M6025 12789 c-704 -44 -1375 -194 -2005 -447 -1709 -688 -3040 -2075
-3657 -3812 -126 -355 -237 -804 -293 -1184 -39 -268 -70 -638 -70 -848 l0
-98 6400 0 6400 0 0 98 c0 210 -31 580 -70 848 -145 984 -536 1954 -1116 2764
-1220 1704 -3166 2702 -5244 2689 -118 -1 -273 -6 -345 -10z" />
        <path d="M44 5653 c14 -144 81 -544 102 -615 5 -17 312 -18 6254 -18 5942 0
6249 1 6254 18 21 71 88 471 102 615 l7 67 -6363 0 -6363 0 7 -67z" />
        <path d="M350 4312 c0 -26 141 -381 222 -559 l61 -133 5767 0 5767 0 61 133
c81 178 222 533 222 559 0 4 -2722 8 -6050 8 -3327 0 -6050 -4 -6050 -8z" />
        <path d="M1048 2888 c57 -90 259 -367 371 -506 l127 -157 4854 0 4854 0 127
157 c112 139 314 416 371 506 l20 32 -5372 0 -5372 0 20 -32z" />
        <path d="M2280 1505 c19 -23 220 -181 355 -280 157 -115 372 -256 515 -339
l114 -66 3136 0 3136 0 114 66 c143 83 358 224 515 339 135 99 336 257 355
280 11 13 -422 15 -4120 15 -3698 0 -4131 -2 -4120 -15z" />
    </g>
</svg>